<svg width="170" height="40" viewBox="0 0 170 40" fill="none" xmlns="http://www.w3.org/2000/svg">
<rect x="0.5" y="0.5" width="169" height="39" rx="7.5" stroke="#39CDCC"/>
<path d="M28.9526 22.746H25.3966L24.6406 25H22.6666L26.0406 15.76H28.3506L31.7246 25H29.7226L28.9526 22.746ZM28.4766 21.318L27.6086 18.714L27.1886 17.314H27.1606L26.7686 18.686L25.8726 21.318H28.4766ZM42.0634 22.452C41.7927 23.3387 41.3121 24.0107 40.6214 24.468C39.9307 24.916 39.1047 25.14 38.1434 25.14C37.2381 25.14 36.4494 24.9487 35.7774 24.566C35.1054 24.1833 34.5874 23.6373 34.2234 22.928C33.8687 22.2093 33.6914 21.36 33.6914 20.38C33.6914 19.4 33.8687 18.5553 34.2234 17.846C34.5874 17.1273 35.1007 16.5767 35.7634 16.194C36.4354 15.8113 37.2194 15.62 38.1154 15.62C39.0767 15.62 39.8887 15.8207 40.5514 16.222C41.2234 16.6233 41.6854 17.2207 41.9374 18.014L40.1874 18.756C40.0381 18.2053 39.8047 17.8087 39.4874 17.566C39.1701 17.3233 38.7407 17.202 38.1994 17.202C37.4154 17.202 36.7994 17.4773 36.3514 18.028C35.9127 18.5787 35.6934 19.3627 35.6934 20.38C35.6934 21.3973 35.9081 22.1813 36.3374 22.732C36.7667 23.2827 37.3734 23.558 38.1574 23.558C39.2867 23.558 39.9961 23.012 40.2854 21.92L42.0634 22.452ZM52.4181 17.314H49.3241V25H47.3921V17.314H44.2841V15.76H52.4181V17.314ZM57.3288 25H55.3968V15.76H57.3288V25ZM65.7508 25H63.4968L60.1228 15.76H62.1668L64.1128 21.64L64.6448 23.46L65.1628 21.654L67.1228 15.76H69.1108L65.7508 25ZM76.2026 22.746H72.6466L71.8906 25H69.9166L73.2906 15.76H75.6006L78.9746 25H76.9726L76.2026 22.746ZM75.7266 21.318L74.8586 18.714L74.4386 17.314H74.4106L74.0186 18.686L73.1226 21.318H75.7266ZM87.8091 17.314H84.7151V25H82.7831V17.314H79.6751V15.76H87.8091V17.314ZM97.9138 23.446V25H90.7878V15.76H97.7178V17.314H92.7198V19.61H96.6538V21.094H92.7198V23.446H97.9138ZM114.482 21.36C114.482 22.6107 114.146 23.5533 113.474 24.188C112.812 24.8227 111.832 25.14 110.534 25.14C109.237 25.14 108.252 24.8227 107.58 24.188C106.918 23.5533 106.586 22.6107 106.586 21.36V15.76H108.518V21.276C108.518 22.0507 108.682 22.6247 109.008 22.998C109.344 23.3713 109.853 23.558 110.534 23.558C111.216 23.558 111.72 23.3713 112.046 22.998C112.373 22.6247 112.536 22.0507 112.536 21.276V15.76H114.482V21.36ZM121.508 15.62C122.367 15.62 123.104 15.7647 123.72 16.054C124.336 16.334 124.878 16.782 125.344 17.398L124.014 18.7C123.772 18.196 123.45 17.8227 123.048 17.58C122.647 17.328 122.138 17.202 121.522 17.202C120.962 17.202 120.528 17.3093 120.22 17.524C119.922 17.7293 119.772 18.0047 119.772 18.35C119.772 18.6673 119.926 18.9193 120.234 19.106C120.542 19.2927 121.098 19.456 121.9 19.596C122.74 19.7547 123.408 19.9507 123.902 20.184C124.397 20.4173 124.756 20.7113 124.98 21.066C125.214 21.4113 125.33 21.8453 125.33 22.368C125.33 22.9373 125.167 23.432 124.84 23.852C124.523 24.2627 124.075 24.58 123.496 24.804C122.927 25.028 122.274 25.14 121.536 25.14C120.519 25.14 119.684 25 119.03 24.72C118.386 24.4307 117.864 23.9967 117.462 23.418L118.61 22.046C118.956 22.6153 119.352 23.012 119.8 23.236C120.248 23.4507 120.804 23.558 121.466 23.558C122.064 23.558 122.516 23.4647 122.824 23.278C123.142 23.0913 123.3 22.8253 123.3 22.48C123.3 22.228 123.151 22.018 122.852 21.85C122.563 21.682 122.04 21.5233 121.284 21.374C120.416 21.1967 119.721 20.9867 119.198 20.744C118.685 20.5013 118.312 20.2027 118.078 19.848C117.845 19.4933 117.728 19.0547 117.728 18.532C117.728 17.9813 117.878 17.4867 118.176 17.048C118.475 16.6 118.909 16.25 119.478 15.998C120.057 15.746 120.734 15.62 121.508 15.62ZM135.656 23.446V25H128.53V15.76H135.46V17.314H130.462V19.61H134.396V21.094H130.462V23.446H135.656ZM142.43 21.458H140.694V25H138.79V15.76H142.864C143.918 15.76 144.74 16.012 145.328 16.516C145.925 17.0107 146.224 17.7107 146.224 18.616C146.224 19.2787 146.06 19.834 145.734 20.282C145.407 20.73 144.94 21.052 144.334 21.248L146.77 25H144.6L142.43 21.458ZM140.694 19.988H142.612C143.172 19.988 143.582 19.8807 143.844 19.666C144.114 19.442 144.25 19.1013 144.25 18.644C144.25 18.1867 144.114 17.8507 143.844 17.636C143.582 17.412 143.172 17.3 142.612 17.3H140.694V19.988Z" fill="#39CDCC"/>
</svg>
