<svg width="170" height="40" viewBox="0 0 170 40" fill="none" xmlns="http://www.w3.org/2000/svg">
<rect x="0.5" y="0.5" width="169" height="39" rx="7.5" stroke="#E4033B"/>
<path d="M17.5944 25V15.76H21.6404C22.7604 15.76 23.5864 15.9793 24.1184 16.418C24.6504 16.8567 24.9164 17.4773 24.9164 18.28C24.9164 18.7747 24.7671 19.2133 24.4684 19.596C24.1698 19.9787 23.7311 20.2213 23.1524 20.324V20.338C23.7964 20.4313 24.2911 20.674 24.6364 21.066C24.9818 21.458 25.1544 21.9247 25.1544 22.466C25.1544 23.2593 24.8651 23.88 24.2864 24.328C23.7171 24.776 22.8818 25 21.7804 25H17.5944ZM19.4704 23.544H21.6124C22.1351 23.544 22.5224 23.4367 22.7744 23.222C23.0264 23.0073 23.1524 22.7087 23.1524 22.326C23.1524 21.934 23.0264 21.6353 22.7744 21.43C22.5224 21.2247 22.1351 21.122 21.6124 21.122H19.4704V23.544ZM19.4704 19.638H21.3884C22.4058 19.638 22.9144 19.2413 22.9144 18.448C22.9144 17.6547 22.4058 17.258 21.3884 17.258H19.4704V19.638ZM30.3327 23.446H35.2047V25H28.4007V15.76H30.3327V23.446ZM46.2309 25H44.2289L43.4589 22.746H39.9169L39.1469 25H37.1729L40.5469 15.76H42.8569L46.2309 25ZM40.3509 21.318H43.0249L41.6809 17.286L40.3509 21.318ZM56.5697 22.452C56.3923 23.0493 56.1123 23.5487 55.7297 23.95C55.347 24.3513 54.8943 24.65 54.3717 24.846C53.849 25.042 53.275 25.14 52.6497 25.14C51.735 25.14 50.9417 24.9487 50.2697 24.566C49.607 24.1833 49.0937 23.6373 48.7297 22.928C48.375 22.2187 48.1977 21.3693 48.1977 20.38C48.1977 19.3907 48.375 18.5413 48.7297 17.832C49.0937 17.1227 49.607 16.5767 50.2697 16.194C50.9417 15.8113 51.7257 15.62 52.6217 15.62C53.2563 15.62 53.8303 15.7087 54.3437 15.886C54.857 16.054 55.291 16.3153 55.6457 16.67C56.0097 17.0247 56.2757 17.4727 56.4437 18.014L54.6937 18.756C54.535 18.196 54.2923 17.7993 53.9657 17.566C53.639 17.3233 53.219 17.202 52.7057 17.202C52.2017 17.202 51.7583 17.3233 51.3757 17.566C51.0023 17.8087 50.713 18.168 50.5077 18.644C50.3023 19.1107 50.1997 19.6893 50.1997 20.38C50.1997 21.0613 50.293 21.64 50.4797 22.116C50.6757 22.592 50.9603 22.9513 51.3337 23.194C51.707 23.4367 52.1643 23.558 52.7057 23.558C53.2097 23.558 53.6437 23.4227 54.0077 23.152C54.381 22.8813 54.6423 22.4707 54.7917 21.92L56.5697 22.452ZM67.5823 15.76L63.3543 20.562L63.2003 20.408L60.8903 23.026L60.5963 21.234L65.3423 15.76H67.5823ZM61.5483 15.76V25H59.6163V15.76H61.5483ZM63.8863 18.952L67.6943 25H65.4823L62.4023 20.03L63.8863 18.952ZM72.4503 23.446H77.3223V25H70.5183V15.76H72.4503V23.446ZM82.2585 15.76V25H80.3265V15.76H82.2585ZM89.4344 15.62C90.2744 15.62 91.0118 15.7647 91.6464 16.054C92.2811 16.3433 92.8224 16.7727 93.2704 17.342L92.1924 18.588C91.8098 18.1027 91.3898 17.748 90.9324 17.524C90.4844 17.2907 89.9618 17.174 89.3644 17.174C88.9724 17.174 88.6458 17.2253 88.3844 17.328C88.1324 17.4307 87.9458 17.566 87.8244 17.734C87.7124 17.902 87.6564 18.0887 87.6564 18.294C87.6564 18.546 87.7544 18.7607 87.9504 18.938C88.1464 19.106 88.4824 19.246 88.9584 19.358L90.6804 19.75C91.5951 19.9553 92.2484 20.2633 92.6404 20.674C93.0418 21.0753 93.2424 21.598 93.2424 22.242C93.2424 22.8487 93.0838 23.3713 92.7664 23.81C92.4491 24.2393 92.0058 24.5707 91.4364 24.804C90.8671 25.028 90.2138 25.14 89.4764 25.14C88.8324 25.14 88.2398 25.0653 87.6984 24.916C87.1664 24.7573 86.6904 24.5427 86.2704 24.272C85.8504 24.0013 85.5004 23.6887 85.2204 23.334L86.3124 22.032C86.5271 22.3307 86.7931 22.5967 87.1104 22.83C87.4278 23.0633 87.7871 23.25 88.1884 23.39C88.5991 23.5207 89.0284 23.586 89.4764 23.586C89.8591 23.586 90.1811 23.544 90.4424 23.46C90.7131 23.3667 90.9138 23.2407 91.0444 23.082C91.1844 22.914 91.2544 22.7133 91.2544 22.48C91.2544 22.2373 91.1704 22.032 91.0024 21.864C90.8438 21.6867 90.5451 21.5513 90.1064 21.458L88.2304 21.038C87.6891 20.9073 87.2224 20.7393 86.8304 20.534C86.4478 20.3193 86.1538 20.0487 85.9484 19.722C85.7524 19.386 85.6544 18.9893 85.6544 18.532C85.6544 17.9813 85.8038 17.4867 86.1024 17.048C86.4011 16.6093 86.8304 16.264 87.3904 16.012C87.9598 15.7507 88.6411 15.62 89.4344 15.62ZM103.518 15.76V17.314H100.424V25H98.4924V17.314H95.3844V15.76H103.518ZM119.603 15.76V21.36C119.603 22.62 119.267 23.5673 118.595 24.202C117.923 24.8273 116.943 25.14 115.655 25.14C114.367 25.14 113.387 24.8273 112.715 24.202C112.043 23.5673 111.707 22.62 111.707 21.36V15.76H113.639V21.276C113.639 22.0507 113.803 22.6247 114.129 22.998C114.465 23.3713 114.974 23.558 115.655 23.558C116.337 23.558 116.841 23.3713 117.167 22.998C117.494 22.6247 117.657 22.0507 117.657 21.276V15.76H119.603ZM126.603 15.62C127.443 15.62 128.18 15.7647 128.815 16.054C129.449 16.3433 129.991 16.7727 130.439 17.342L129.361 18.588C128.978 18.1027 128.558 17.748 128.101 17.524C127.653 17.2907 127.13 17.174 126.533 17.174C126.141 17.174 125.814 17.2253 125.553 17.328C125.301 17.4307 125.114 17.566 124.993 17.734C124.881 17.902 124.825 18.0887 124.825 18.294C124.825 18.546 124.923 18.7607 125.119 18.938C125.315 19.106 125.651 19.246 126.127 19.358L127.849 19.75C128.763 19.9553 129.417 20.2633 129.809 20.674C130.21 21.0753 130.411 21.598 130.411 22.242C130.411 22.8487 130.252 23.3713 129.935 23.81C129.617 24.2393 129.174 24.5707 128.605 24.804C128.035 25.028 127.382 25.14 126.645 25.14C126.001 25.14 125.408 25.0653 124.867 24.916C124.335 24.7573 123.859 24.5427 123.439 24.272C123.019 24.0013 122.669 23.6887 122.389 23.334L123.481 22.032C123.695 22.3307 123.961 22.5967 124.279 22.83C124.596 23.0633 124.955 23.25 125.357 23.39C125.767 23.5207 126.197 23.586 126.645 23.586C127.027 23.586 127.349 23.544 127.611 23.46C127.881 23.3667 128.082 23.2407 128.213 23.082C128.353 22.914 128.423 22.7133 128.423 22.48C128.423 22.2373 128.339 22.032 128.171 21.864C128.012 21.6867 127.713 21.5513 127.275 21.458L125.399 21.038C124.857 20.9073 124.391 20.7393 123.999 20.534C123.616 20.3193 123.322 20.0487 123.117 19.722C122.921 19.386 122.823 18.9893 122.823 18.532C122.823 17.9813 122.972 17.4867 123.271 17.048C123.569 16.6093 123.999 16.264 124.559 16.012C125.128 15.7507 125.809 15.62 126.603 15.62ZM133.639 25V15.76H140.569V17.314H135.571V19.61H139.505V21.094H135.571V23.446H140.765V25H133.639ZM147.972 15.76C149.017 15.76 149.839 16.012 150.436 16.516C151.033 17.02 151.332 17.6967 151.332 18.546C151.332 19.4513 151.033 20.1467 150.436 20.632C149.839 21.108 149.022 21.346 147.986 21.346L147.79 21.458H145.802V25H143.898V15.76H147.972ZM147.748 19.988C148.289 19.988 148.691 19.8807 148.952 19.666C149.223 19.442 149.358 19.1013 149.358 18.644C149.358 18.1867 149.223 17.8507 148.952 17.636C148.691 17.412 148.289 17.3 147.748 17.3H145.802V19.988H147.748ZM148.882 20.394L151.878 25H149.708L147.23 20.954L148.882 20.394Z" fill="#E4033B"/>
</svg>
